<svg id="Layer_1" data-name="Layer 1" xmlns="http://www.w3.org/2000/svg" viewBox="0 0 54.15 77.92"><path d="M59.84,84.94v20.18c0,.16,0,.32,0,.49,0,1.28-.5,1.81-1.78,1.82-2.36,0-4.72,0-7.08,0a8.47,8.47,0,0,1-1.13-.06,1,1,0,0,1-.93-.86,11.41,11.41,0,0,1-.15-1.93,2.56,2.56,0,0,0-1.85-2.76A5.19,5.19,0,0,1,43.84,98a1.92,1.92,0,0,0-1.12-1.37,7.75,7.75,0,0,1-4.53-5.35A9,9,0,0,1,38,88.73a2.58,2.58,0,0,0-.73-2,6.14,6.14,0,0,1,0-8.53c.41-.45,1-.82.9-1.54a7.12,7.12,0,0,1,2.42-5.89,1.8,1.8,0,0,0,.71-1.63,7.15,7.15,0,0,1,6.23-7.48,1.65,1.65,0,0,0,1.13-.76,6.31,6.31,0,0,1,3.88-2.58A6.06,6.06,0,0,1,59.67,63a6.66,6.66,0,0,1,.18,1.48V84.94Zm-5.57,20.11h2.47c.51,0,.73-.19.74-.7,0-.86,0-1.72,0-2.59,0-1,0-2.07,0-3.11,0-.79,0-1.59,0-2.38,0-.22-.11-.38-.36-.18l-.5.35A8.05,8.05,0,0,1,54.7,97.6,1.06,1.06,0,0,1,53.43,97a.94.94,0,0,1,.15-1.28,4.28,4.28,0,0,1,.86-.6,6.3,6.3,0,0,0,2.25-2.28,4.56,4.56,0,0,0,.73-3,3.74,3.74,0,0,0-1-1.86.93.93,0,0,1,.29-1.57,1.26,1.26,0,0,0,.8-1.32,11.42,11.42,0,0,1,0-1.65,9.91,9.91,0,0,0-.05-1.89,1.38,1.38,0,0,0-1-1.29c-.42-.15-.85-.23-1.28-.34a1.12,1.12,0,0,1-1-1.27c.1-.7.52-1,1.31-1a6.6,6.6,0,0,1,1.59.26c.39.1.42,0,.41-.37,0-1.27,0-2.53,0-3.8a5.36,5.36,0,0,0-.6-2.88c-.47-.84-.32-1.28.4-1.91a.53.53,0,0,0,.24-.43c0-1.58.08-3.16-.08-4.73a3.12,3.12,0,0,0-.69-1.7,3.77,3.77,0,0,0-5.22-.69c-.6.41-.58.63.06.94l.47.23a6.19,6.19,0,0,1,1.77,1.4A1.17,1.17,0,1,1,52,65.45,4.93,4.93,0,0,0,48.62,64a4.82,4.82,0,0,0-4.38,7.09c.42.83.6.86,1.33.31l.2-.14a5.08,5.08,0,0,1,4.74-.62,1.07,1.07,0,0,1,.81,1.23,1,1,0,0,1-1.2,1,14.35,14.35,0,0,0-1.73-.11,2.77,2.77,0,0,0-2.49,2.51,3.71,3.71,0,0,0,.57,2,1.06,1.06,0,0,1-.39,1.51,1.08,1.08,0,0,1-1.54-.26,4,4,0,0,1-.92-3.28,1.73,1.73,0,0,0,0-.6,4,4,0,0,0-1.08-1.82.42.42,0,0,0-.7,0,4.92,4.92,0,0,0-1.2,4.09,6.11,6.11,0,0,0,1.22,2.6A1,1,0,0,1,41.69,81a1,1,0,0,1-1.52,0,3.71,3.71,0,0,1-.67-.75c-.3-.48-.57-.49-.88,0a3.84,3.84,0,0,0-.44,3.55,3.8,3.8,0,0,0,2.32,2.39c.51.2.78.06.94-.47,0-.15.07-.31.12-.47A3.84,3.84,0,0,1,44,82.77a1,1,0,0,1,1.36.48,1,1,0,0,1-.21,1.44c-.28.25-.6.47-.87.72a1.48,1.48,0,0,0-.22,2.28c.22.32.49.61.7.94a1.15,1.15,0,0,1-1.6,1.57,3.29,3.29,0,0,1-1-.94,1.27,1.27,0,0,0-1-.55c-.8,0-1,.18-.85.93.05.2.07.42.11.63a5.62,5.62,0,0,0,2.93,4c.37.22.58.12.75-.29a6.58,6.58,0,0,1,.29-.66A1.06,1.06,0,0,1,45.79,93a1,1,0,0,1,.7,1.23c-.07.31-.18.62-.28.92a3.64,3.64,0,0,0,.52,3.53,3.8,3.8,0,0,0,4,1.6c.54-.12,1-.41,1.57-.51a.93.93,0,0,1,1,.32,1.21,1.21,0,0,1-.54,2,5.47,5.47,0,0,1-.55.13A1.27,1.27,0,0,0,51,103.32a3.43,3.43,0,0,0,0,1c.13.61.25.72.86.72Z" transform="translate(-22.85 -45.22)" style="fill:#3730a5"/><path d="M77,65.7c-1.14,0-2.25,0-3.35,0a.69.69,0,0,1-.4-.17A19.44,19.44,0,0,0,64.36,62c-.22,0-.34,0-.31.26v42.4c0,.53,0,.53.51.53,2.93,0,5.86,0,8.78,0,.36,0,.5.09.44.45,0,.12,0,.24,0,.36a1.29,1.29,0,0,1-1.43,1.44q-4.95,0-9.92,0c-.94,0-1.24-.32-1.34-1.26,0-.21,0-.43,0-.64V61.59a8.56,8.56,0,0,1,.06-1.13c.09-.64.37-.91,1-.92a21.65,21.65,0,0,1,8.55,1.67,18.31,18.31,0,0,1,6.07,4.14l.19.21S77,65.61,77,65.7Z" transform="translate(-22.85 -45.22)" style="fill:#fab56d"/><path d="M61.71,109.55H71.3a3.83,3.83,0,0,1,1,.08.94.94,0,0,1,.74.85c.06.67-.11,1.06-.57,1.26a2,2,0,0,1-.83.17l-19.82,0c-.95,0-1.42-.45-1.39-1.25a1.07,1.07,0,0,1,1.2-1.08H61.71Z" transform="translate(-22.85 -45.22)" style="fill:#3730a5"/><path d="M61.77,116.52H53.39c-1.17-.1-1.26-.75-1.13-1.58a1,1,0,0,1,1-.75c.22,0,.43,0,.65,0H69.65c.21,0,.43,0,.64,0a1.11,1.11,0,0,1,1,1.18,1.05,1.05,0,0,1-1,1.14,5.15,5.15,0,0,1-.56,0Z" transform="translate(-22.85 -45.22)" style="fill:#3730a5"/><path d="M62.84,123.13a12.73,12.73,0,0,1-4.89-.88A6.4,6.4,0,0,1,54.73,119a1.17,1.17,0,0,1,1.11-1.78,1.07,1.07,0,0,1,1,.69c.95,2.08,2.73,2.79,4.82,2.83a5.28,5.28,0,0,0,4.11-1.58A5.47,5.47,0,0,0,66.5,118a1.08,1.08,0,0,1,1.12-.62,1.25,1.25,0,0,1,1.09.89,1.1,1.1,0,0,1-.11.78,7.27,7.27,0,0,1-4.68,4A3,3,0,0,1,62.84,123.13Z" transform="translate(-22.85 -45.22)" style="fill:#3730a5"/><path d="M27.33,82.69H24.38a2.4,2.4,0,0,1-.76-.09,1.23,1.23,0,0,1,0-2.27,3.68,3.68,0,0,1,1.32-.12h5.54A1.26,1.26,0,0,1,31.9,81.5a1.13,1.13,0,0,1-1.21,1.18c-1.12,0-2.24,0-3.36,0Z" transform="translate(-22.85 -45.22)" style="fill:#3730a5"/><path d="M33.11,56.68a1.31,1.31,0,0,1,.73-1.12,1,1,0,0,1,1.13.13,25.76,25.76,0,0,1,1.92,1.85c1,1,2,1.94,2.93,2.91A1.15,1.15,0,0,1,40,62.11a1.4,1.4,0,0,1-1.73.18c-.12-.09-.23-.19-.34-.29l-4.28-4.29A1.37,1.37,0,0,1,33.11,56.68Z" transform="translate(-22.85 -45.22)" style="fill:#3730a5"/><path d="M60.32,49.67c0,1.08,0,2.16,0,3.23a1.16,1.16,0,0,1-1.61,1.22.92.92,0,0,1-.72-.84,32.78,32.78,0,0,1,0-3.71c0-1.07,0-2.15,0-3.23a1,1,0,0,1,1.1-1.12,1.07,1.07,0,0,1,1.25,1.22Z" transform="translate(-22.85 -45.22)" style="fill:#3730a5"/></svg>