<?xml version="1.0" encoding="UTF-8"?> <!-- Generator: Adobe Illustrator 27.0.0, SVG Export Plug-In . SVG Version: 6.00 Build 0) --> <svg xmlns="http://www.w3.org/2000/svg" xmlns:xlink="http://www.w3.org/1999/xlink" version="1.1" id="Layer_1" x="0px" y="0px" viewBox="0 0 512 216.4" style="enable-background:new 0 0 512 216.4;" xml:space="preserve"> <style type="text/css"> .st0{fill:#712E88;} </style> <g> <g> <path class="st0" d="M388.7,83.8v-8.3h-17.8l2.3,4.3v86.2l-3.4,4.9h21.5l-2.6-4.9V98.4c0,0,5.2-8.1,7.2-9.8 c9.8-8.9,17.8-3.2,22.1-1.1v-9.8C399.4,67.1,388.7,83.8,388.7,83.8z"></path> <polygon class="st0" points="443.6,75.4 423.2,75.4 425.5,79.7 425.5,165.9 422.1,170.8 443.6,170.8 440.7,165.9 440.7,79.7 "></polygon> <polygon class="st0" points="473.2,21.7 475.8,17.7 455.4,17.7 457.7,21.7 457.7,165.9 454.3,170.8 475.8,170.8 473.2,165.9 "></polygon> <path class="st0" d="M347.6,161.6c-3.2-1.7-4.3-4.3-4.3-9.5s0-65.8,0-65.8H360l2.6-10.6h-19.2V47.6L326.1,57v18.7h-10.6l-3.2,10.6 h13.8v59.8c0,6.9,1.7,23,15.2,27c6,1.7,22.1,2.6,27.3-9.5l-2.9-4.6C363.2,162.5,354.8,165.7,347.6,161.6z"></path> <path class="st0" d="M177.6,205c0,0,48.8-123.3,52-129.6h-18.1l2,3.2c0,0-31.6,82.2-34.2,87.6c0,0-34.2-84.2-37.3-88.5l2-2.6 h-35.6l2.6,2.6v86.2h-3.4c0,0-48.8-70.7-53.5-77c11.5-3.2,19.5-6.6,22.4-8.3C98.3,65.1,92,40.4,90.6,36.3 c-8.1-22.4-33.6-23-37.9-23.6H6.9l3.2,5.2v144.5l-3.7,5.2h24.1V82.9c0,0,55.2,81,58.9,86.8c0,0,33.6,0,41.4,0l-2.9-4.6 c0,0,0-71.8,0-80.2C127.9,84.9,173.5,196.7,177.6,205z M30.4,74.6V22.8h18.4c21,0,25,18.7,25.3,22.4C76.1,68,60.9,73.1,56,74.9 C49.7,77.2,33.9,77.7,30.4,74.6z"></path> <path class="st0" d="M118.4,61.3c6.6,0,11.8-5.2,11.8-11.8s-5.2-11.8-11.8-11.8s-11.8,5.2-11.8,11.8 C106.9,56.2,112,61.3,118.4,61.3z"></path> <path class="st0" d="M432.1,38.1c-6.3,0-11.8,5.2-11.8,11.8s5.2,11.8,11.8,11.8c6.6,0,11.8-5.2,11.8-11.8S438.7,38.1,432.1,38.1z"></path> <path class="st0" d="M269.5,70.8c-27.3,0-49.4,23.9-49.4,53.5s22.1,53.7,49.4,53.7c27.3,0,49.4-23.9,49.4-53.7 C319.2,94.7,297.1,70.8,269.5,70.8z M269.5,164.5c-19,0-34.2-18.1-34.2-40.2s15.2-40.2,34.2-40.2s34.2,18.1,34.2,40.2 S288.5,164.5,269.5,164.5z"></path> </g> <g> <path d="M502.5,23.7c-2,2-4.6,3.2-7.5,3.2c-2.9,0-5.5-1.1-7.5-3.2s-3.2-4.6-3.2-7.5s1.1-5.5,3.2-7.5c2-2,4.6-3.2,7.5-3.2 c2.9,0,5.5,1.1,7.5,3.2s3.2,4.6,3.2,7.5S504.5,21.7,502.5,23.7z M488.7,9.6c-1.7,1.7-2.6,4-2.6,6.6s0.9,4.6,2.6,6.6 c1.7,1.7,4,2.6,6.6,2.6c2.6,0,4.6-0.9,6.6-2.6c1.7-1.7,2.6-4,2.6-6.6s-0.9-4.6-2.6-6.6c-1.7-1.7-4-2.6-6.6-2.6 C492.5,7,490.5,7.9,488.7,9.6z M494.8,10.2c1.4,0,2.6,0,3.2,0.3c1.1,0.6,1.7,1.4,1.7,2.9c0,1.1-0.3,1.7-1.1,2.3 c-0.3,0.3-0.9,0.6-1.7,0.6c0.9,0.3,1.4,0.6,2,1.1c0.3,0.6,0.6,1.1,0.6,1.7V20c0,0.3,0,0.6,0,0.9s0,0.6,0,0.6v0.3h-2l0,0l0,0v-0.3 v-0.9c0-1.4-0.3-2.3-1.1-2.6c-0.6-0.3-1.1-0.3-2.3-0.3h-1.1v4.6h-2v-12H494.8z M497.1,12.2c-0.6-0.3-1.4-0.6-2.6-0.6h-1.7V16h1.7 c0.9,0,1.4,0,2-0.3c0.9-0.3,1.1-0.9,1.1-1.7C497.9,13.1,497.6,12.5,497.1,12.2z"></path> </g> <g> <path d="M352.3,199.3c-0.3,4-3.2,5.5-5.5,5.5c-0.9,0-3.2,0-4.6-2.3c-1.1-1.7-1.1-4-1.1-5.5c0-2,0.3-4.3,1.4-6c1.7-2,4-2.3,4.6-2.3 c2.9,0,5.2,1.4,5.2,5.5H350c0-2.3-1.1-3.7-3.2-3.7c-3.4,0-3.4,5.2-3.4,6.3c0,2.6,0.6,6,3.4,6c0.9,0,1.7-0.3,2.3-1.1 c0.9-0.9,0.9-2.3,0.9-2.6h2.3V199.3z"></path> <path d="M357.1,204.5h-2.3v-21.5h2.3V204.5z"></path> <path d="M366.3,204.7c-5.5,0-6-4.9-6-7.8c0-2.3,0-8.1,6-8.1c5.5,0,5.7,4.9,5.7,7.5C372.4,198.7,372.4,204.7,366.3,204.7z M366.3,190.4c-3.4,0-3.7,4.6-3.7,6.3c0,2.3,0.3,6.3,3.7,6.3c2.6,0,3.4-2.6,3.4-6.6C369.8,193,368.9,190.4,366.3,190.4z"></path> <path d="M386.2,204.5h-2.3v-8.9c0-0.6,0-1.4,0-2c0-0.6-0.3-2.9-2.6-2.9c-0.6,0-1.1,0-1.7,0.3c-1.7,0.9-1.7,2.3-1.7,3.2v10.3h-2.3 v-15.3h2.3v1.7c0.9-0.9,2.3-2,4.3-2c1.1,0,2.6,0.6,3.2,1.4c0.9,1.1,0.9,2.6,0.9,3.7L386.2,204.5L386.2,204.5z"></path> <path d="M400.5,204.5h-1.7c-1.1,0-1.1-0.3-1.1-1.7c-0.3,0.3-0.9,0.9-1.7,1.1c-0.9,0.6-2,0.9-2.9,0.9c-3.2,0-3.7-2.6-3.7-4.3 c0-0.6,0-1.1,0.3-1.7c0.9-2.3,3.2-2.6,5.7-3.2l2.3-0.3v-1.4c0-1.4,0-3.2-2.6-3.2c-0.6,0-1.4,0-2.3,0.9c-0.9,0.9-0.9,2-0.9,2.6 h-2.3c0-0.6,0-1.7,0.3-2.6c0.6-1.7,2.6-2.6,5.2-2.6c0.9,0,2.6,0.3,3.7,1.1c0.9,1.1,0.9,2.6,0.9,3.7v8.3c0,0.6,0,1.1,0,1.4 c0,0.3,0.3,0.6,0.6,0.6v0.3C400.3,204.5,400.5,204.5,400.5,204.5z M397.7,196.7h-0.6c-2,0.3-3.4,0.6-4,0.9 c-0.9,0.6-1.1,1.4-1.1,2.6c0,1.7,1.1,2.9,2.6,2.9c0.9,0,1.4-0.3,2-0.6c1.1-0.9,1.1-2,1.1-3.2L397.7,196.7L397.7,196.7z"></path> <path d="M412.6,204.5h-10.3v-1.7l7.8-11.8h-6.9v-1.7h9.8v1.7l-7.8,11.5h7.8v2H412.6z"></path> <path d="M425.8,199.6c-0.3,3.7-3.2,4.9-5.5,4.9c-0.9,0-2.9,0-4.3-1.7c-0.6-0.9-1.4-2.6-1.4-5.7c0-5.2,1.7-8.3,6-8.3 s5.7,3.2,5.5,8.1h-9.2c0,2,0,6.3,3.4,6.3c0.9,0,2.9-0.3,3.2-3.2h2.3L425.8,199.6L425.8,199.6z M423.5,195c0-0.9,0-4.6-3.2-4.6 c-2,0-3.4,1.4-3.4,4.6H423.5z"></path> <path d="M431,190.9c0.6-0.9,1.7-2.3,4.3-2.3c5.2,0,5.2,6.3,5.2,7.8c0,3.7-0.9,8.3-5.7,8.3c-2.3,0-3.2-1.1-3.7-2v8.1h-2.3v-21.5 h2.3V190.9z M431,199.3c0,2.9,2,3.7,3.2,3.7c3.7,0,3.7-4.6,3.7-6.3c0-2.6-0.6-6.3-3.4-6.3c-1.1,0-2.3,0.6-2.9,1.4 c-0.6,0.9-0.6,2.3-0.9,3.2v4.3H431z"></path> <path d="M454,204.5h-1.7c-1.1,0-1.1-0.3-1.1-1.7c-0.3,0.3-0.9,0.9-1.7,1.1c-0.9,0.6-2,0.9-2.9,0.9c-3.2,0-3.7-2.6-3.7-4.3 c0-0.6,0-1.1,0.3-1.7c0.9-2.3,3.2-2.6,5.7-3.2l2.3-0.3v-1.4c0-1.4,0-3.2-2.6-3.2c-0.6,0-1.4,0-2.3,0.9c-0.9,0.9-0.9,2-0.9,2.6 h-2.3c0-0.6,0-1.7,0.3-2.6c0.6-1.7,2.6-2.6,5.2-2.6c0.9,0,2.6,0.3,3.7,1.1c0.9,1.1,0.9,2.6,0.9,3.7v8.3c0,0.6,0,1.1,0,1.4 c0,0.3,0.3,0.6,0.6,0.6v0.3C453.7,204.5,454,204.5,454,204.5z M451.1,196.7h-0.6c-2,0.3-3.4,0.6-4,0.9c-0.9,0.6-1.1,1.4-1.1,2.6 c0,1.7,1.1,2.9,2.6,2.9c0.9,0,1.4-0.3,2-0.6c1.1-0.9,1.1-2,1.1-3.2L451.1,196.7L451.1,196.7z"></path> <path d="M474.9,204.5h-2.3v-10c0-1.1,0-2-0.3-2.9c-0.3-0.9-1.1-1.1-2-1.1c-0.6,0-1.1,0.3-1.4,0.3c-1.4,0.9-1.4,2.3-1.7,3.2v10.3 h-2.3v-10c0-0.6,0-1.1,0-1.4c-0.3-1.1-0.9-2.3-2.3-2.3c-1.1,0-2.3,0.9-2.6,1.7c-0.3,0.6-0.3,1.7-0.3,2.6v9.5h-2.3v-15h2.3v1.7 c0.9-0.9,2-2,4-2c1.7,0,2.9,0.9,3.4,2.3c1.1-1.4,2.6-2.3,4.3-2.3c0.6,0,1.1,0,1.7,0.3c1.7,0.9,2,2.9,2,4.3v10.9 C475.2,204.5,474.9,204.5,474.9,204.5z"></path> </g> </g> </svg> 